<?xml version="1.0" encoding="utf-8"?><svg xmlns="http://www.w3.org/2000/svg" xmlns:xlink="http://www.w3.org/1999/xlink" width="1245" height="609" preserveAspectRatio="xMidYMid" viewBox="0 0 1245 609" style="z-index:1;margin-right:-2px;display:block;background-repeat-y:initial;background-repeat-x:initial;background-color:rgb(255, 255, 255);animation-play-state:paused" ><g transform="translate(622.5,304.5) scale(1,1) translate(-622.5,-304.5)" style="transform:matrix(1, 0, 0, 1, 0, 0);animation-play-state:paused" ><path id="path0" d="M 1174.636440109073 361.8183918153537
c 0 21.66795700478905 -5.301734160746256 6.2237748843543015 -11.525509045100558 6.2237748843543015
S 1151.585422018872 383.4863488201428 1151.585422018872 361.8183918153537
s 5.301734160746256 -6.2237748843543015 11.525509045100558 -6.2237748843543015
S 1174.636440109073 340.15043481056466 1174.636440109073 361.8183918153537
z" fill="none" stroke="none" style="animation-play-state:paused" ></path>


<circle cx="0" cy="0" r="5.962155063984562" fill="#ff708e" opacity="0.9" transform="translate(1151.85205078125 368.5757751464844)" style="opacity:0.9;animation-play-state:paused" ></circle>
<path id="path1" d="M 614.8249947034143 572.2544640428058
c 0 25.44306837464195 -6.225431623582605 7.308115384205667 -13.533547007788272 7.308115384205667
S 587.7579006878378 597.6975324174477 587.7579006878378 572.2544640428058
s 6.225431623582605 -7.308115384205667 13.533547007788272 -7.308115384205667
S 614.8249947034143 546.8113956681639 614.8249947034143 572.2544640428058
z" fill="none" stroke="none" style="animation-play-state:paused" ></path>


<circle cx="0" cy="0" r="4.964646302184532" fill="#9df871" opacity="0.9" transform="translate(587.7644653320312 573.6198120117188)" style="opacity:0.9;animation-play-state:paused" ></circle>
<path id="path2" d="M 805.9766447735224 507.9229301782987
c 0 23.241586269477736 -5.686771108489232 6.675774779530839 -12.36254588802007 6.675774779530839
S 781.2515529974821 531.1645164477765 781.2515529974821 507.9229301782987
s 5.686771108489232 -6.675774779530839 12.36254588802007 -6.675774779530839
S 805.9766447735224 484.68134390882096 805.9766447735224 507.9229301782987
z" fill="none" stroke="none" style="animation-play-state:paused" ></path>


<circle cx="0" cy="0" r="4.071734148082544" fill="#de9dd6" opacity="0.9" transform="translate(792.7853393554688 501.1648254394531)" style="opacity:0.9;animation-play-state:paused" ></circle>
<path id="path3" d="M 1068.3250237461991 281.5058501849361
c 0 19.1035757400399 -4.674279170435295 5.487197287032738 -10.161476457468034 5.487197287032738
S 1048.002070831263 300.609425924976 1048.002070831263 281.5058501849361
s 4.674279170435295 -5.487197287032738 10.161476457468034 -5.487197287032738
S 1068.3250237461991 262.4022744448962 1068.3250237461991 281.5058501849361
z" fill="none" stroke="none" style="animation-play-state:paused" ></path>


<circle cx="0" cy="0" r="7.958312695332634" fill="#e0ff77" opacity="0.9" transform="translate(1063.1702880859375 273.2537841796875)" style="opacity:0.9;animation-play-state:paused" ></circle>
<path id="path4" d="M 647.3401892518193 43.25702904355485
c 0 35.01630151088075 -8.56781845478997 10.057873838231705 -18.625692293021675 10.057873838231705
S 610.088804665776 78.2733305544356 610.088804665776 43.25702904355485
s 8.56781845478997 -10.057873838231705 18.625692293021675 -10.057873838231705
S 647.3401892518193 8.2407275326741 647.3401892518193 43.25702904355485
z" fill="none" stroke="none" style="animation-play-state:paused" ></path>


<circle cx="0" cy="0" r="5.65184736027955" fill="#9df871" opacity="0.9" transform="translate(617.0303955078125 26.032278060913086)" style="opacity:0.9;animation-play-state:paused" ></circle>
<path id="path5" d="M 148.49037479209258 8.345617456038209
c 0 27.785002841307875 -6.798458142022139 7.980798688460773 -14.779256830482911 7.980798688460773
S 118.93186113112675 36.130620297346084 118.93186113112675 8.345617456038209
s 6.798458142022139 -7.980798688460773 14.779256830482911 -7.980798688460773
S 148.49037479209258 -19.439385385269667 148.49037479209258 8.345617456038209
z" fill="none" stroke="none" style="animation-play-state:paused" ></path>


<circle cx="0" cy="0" r="7.949899419947565" fill="#e0ff77" opacity="0.9" transform="translate(145.02243041992188 23.123291015625)" style="opacity:0.9;animation-play-state:paused" ></circle>
<path id="path6" d="M 275.0136513698885 294.52927476029464
c 0 29.832769368992054 -7.299507398795927 8.568986946412611 -15.86849434520854 8.568986946412611
S 243.27666267947143 324.3620441292867 243.27666267947143 294.52927476029464
s 7.299507398795927 -8.568986946412611 15.86849434520854 -8.568986946412611
S 275.0136513698885 264.6965053913026 275.0136513698885 294.52927476029464
z" fill="none" stroke="none" style="animation-play-state:paused" ></path>


<circle cx="0" cy="0" r="6.757956815603465" fill="#de9dd6" opacity="0.9" transform="translate(274.0065612792969 281.4469299316406)" style="opacity:0.9;animation-play-state:paused" ></circle>
<path id="path7" d="M 265.31900317980495 414.7671541175722
c 0 24.84585930347903 -6.0793059997874215 7.136576608446105 -13.215882608233526 7.136576608446105
S 238.8872379633379 439.6130134210512 238.8872379633379 414.7671541175722
s 6.0793059997874215 -7.136576608446105 13.215882608233526 -7.136576608446105
S 265.31900317980495 389.9212948140932 265.31900317980495 414.7671541175722
z" fill="none" stroke="none" style="animation-play-state:paused" ></path>


<circle cx="0" cy="0" r="7.586322241218984" fill="#ff708e" opacity="0.9" transform="translate(239.24859619140625 423.017333984375)" style="opacity:0.9;animation-play-state:paused" ></circle>
<path id="path8" d="M 375.41019480876247 343.668201862823
c 0 32.452156552880155 -7.940421284215357 9.321364116252811 -17.261785400468167 9.321364116252811
S 340.88662400782613 376.1203584157032 340.88662400782613 343.668201862823
s 7.940421284215357 -9.321364116252811 17.261785400468167 -9.321364116252811
S 375.41019480876247 311.21604530994284 375.41019480876247 343.668201862823
z" fill="none" stroke="none" style="animation-play-state:paused" ></path>


<circle cx="0" cy="0" r="5.855506303445839" fill="#ff708e" opacity="0.9" transform="translate(340.89752197265625 345.6509094238281)" style="opacity:0.9;animation-play-state:paused" ></circle>
<path id="path9" d="M 1025.7090612382042 287.9936998632978
c 0 19.96044388615181 -4.8839383976754425 5.73331898857552 -10.617257386250962 5.73331898857552
S 1004.4745464657024 307.95414374944966 1004.4745464657024 287.9936998632978
s 4.8839383976754425 -5.73331898857552 10.617257386250962 -5.73331898857552
S 1025.7090612382042 268.033255977146 1025.7090612382042 287.9936998632978
z" fill="none" stroke="none" style="animation-play-state:paused" ></path>


<circle cx="0" cy="0" r="6.5158280154871004" fill="#e0ff77" opacity="0.9" transform="translate(1004.52685546875 291.2328796386719)" style="opacity:0.9;animation-play-state:paused" ></circle>
<path id="path10" d="M 778.2208223265004 501.2306830852714
c 0 20.324911384007763 -4.973116615235941 5.838006461363932 -10.811123076599873 5.838006461363932
S 756.5985761733007 521.5555944692792 756.5985761733007 501.2306830852714
s 4.973116615235941 -5.838006461363932 10.811123076599873 -5.838006461363932
S 778.2208223265004 480.90577170126363 778.2208223265004 501.2306830852714
z" fill="none" stroke="none" style="animation-play-state:paused" ></path>


<circle cx="0" cy="0" r="5.161766637667386" fill="#ff708e" opacity="0.9" transform="translate(756.9496459960938 494.0472717285156)" style="opacity:0.9;animation-play-state:paused" ></circle>
<path id="path11" d="M 814.1937500048343 11.926516220827008
c 0 24.099598512671193 -5.896710274376993 6.922225104703427 -12.81893537908042 6.922225104703427
S 788.5558792466734 36.026114733498204 788.5558792466734 11.926516220827008
s 5.896710274376993 -6.922225104703427 12.81893537908042 -6.922225104703427
S 814.1937500048343 -12.173082291844185 814.1937500048343 11.926516220827008
z" fill="none" stroke="none" style="animation-play-state:paused" ></path>


<circle cx="0" cy="0" r="7.884352311372149" fill="#de9dd6" opacity="0.9" transform="translate(789.8895263671875 0.009634934365749359)" style="opacity:0.9;animation-play-state:paused" ></circle>
<path id="path12" d="M 638.2409050787917 397.40711247459234
c 0 31.354790017178594 -7.671916706330932 9.00616309004066 -16.67807979637159 9.00616309004066
S 604.8847454860486 428.7619024917709 604.8847454860486 397.40711247459234
s 7.671916706330932 -9.00616309004066 16.67807979637159 -9.00616309004066
S 638.2409050787917 366.05232245741377 638.2409050787917 397.40711247459234
z" fill="none" stroke="none" style="animation-play-state:paused" ></path>


<circle cx="0" cy="0" r="6.6774837179238276" fill="#e0ff77" opacity="0.9" transform="translate(606.2094116210938 382.81298828125)" style="opacity:0.9;animation-play-state:paused" ></circle>
<path id="path13" d="M 156.73853612889525 393.2728802979109
c 0 27.355374756925915 -6.6933363766946385 7.857394876989359 -14.550731253683997 7.857394876989359
S 127.63707362152725 420.6282550548368 127.63707362152725 393.2728802979109
s 6.6933363766946385 -7.857394876989359 14.550731253683997 -7.857394876989359
S 156.73853612889525 365.91750554098496 156.73853612889525 393.2728802979109
z" fill="none" stroke="none" style="animation-play-state:paused" ></path>


<circle cx="0" cy="0" r="6.823884228150603" fill="#51cacc" opacity="0.9" transform="translate(133.50775146484375 406.3765869140625)" style="opacity:0.9;animation-play-state:paused" ></circle>
<path id="path14" d="M 486.5066241949223 333.1031473110169
c 0 37.05477010013713 -9.066592684076104 10.643391411741517 -19.70998409581762 10.643391411741517
S 447.0866560032871 370.1579174111541 447.0866560032871 333.1031473110169
s 9.066592684076104 -10.643391411741517 19.70998409581762 -10.643391411741517
S 486.5066241949223 296.0483772108798 486.5066241949223 333.1031473110169
z" fill="none" stroke="none" style="animation-play-state:paused" ></path>


<circle cx="0" cy="0" r="4.173962747417075" fill="#9df871" opacity="0.9" transform="translate(449.367919921875 314.41131591796875)" style="opacity:0.9;animation-play-state:paused" ></circle>
<path id="path15" d="M 69.93512881790173 104.63192797205512
c 0 29.906698123173072 -7.317596349287027 8.590221801336947 -15.907818150623974 8.590221801336947
S 38.119492516653786 134.5386260952282 38.119492516653786 104.63192797205512
s 7.317596349287027 -8.590221801336947 15.907818150623974 -8.590221801336947
S 69.93512881790173 74.72522984888205 69.93512881790173 104.63192797205512
z" fill="none" stroke="none" style="animation-play-state:paused" ></path>


<circle cx="0" cy="0" r="5.697145441530069" fill="#ff708e" opacity="0.9" transform="translate(49.235870361328125 115.08517456054688)" style="opacity:0.9;animation-play-state:paused" ></circle>
<path id="path16" d="M 962.6627372456953 244.3584914355073
c 0 24.5280875643277 -6.00155334020784 7.045301747200509 -13.04685508740835 7.045301747200509
S 936.5690270708785 268.88657899983497 936.5690270708785 244.3584914355073
s 6.00155334020784 -7.045301747200509 13.04685508740835 -7.045301747200509
S 962.6627372456953 219.83040387117958 962.6627372456953 244.3584914355073
z" fill="none" stroke="none" style="animation-play-state:paused" ></path>


<circle cx="0" cy="0" r="6.406784950022495" fill="#9df871" opacity="0.9" transform="translate(950.6907958984375 251.5337677001953)" style="opacity:0.9;animation-play-state:paused" ></circle>
<path id="path17" d="M 216.78313960763037 97.97068382010887
c 0 33.728580307737154 -8.252737734871856 9.687996471371312 -17.940734206243167 9.687996471371312
S 180.90167119514402 131.69926412784602 180.90167119514402 97.97068382010887
s 8.252737734871856 -9.687996471371312 17.940734206243167 -9.687996471371312
S 216.78313960763037 64.24210351237173 216.78313960763037 97.97068382010887
z" fill="none" stroke="none" style="animation-play-state:paused" ></path>


<circle cx="0" cy="0" r="7.3766821297787235" fill="#ff708e" opacity="0.9" transform="translate(180.95518493652344 93.6075210571289)" style="opacity:0.9;animation-play-state:paused" ></circle>
<path id="path18" d="M 498.6287194546965 320.1350856973947
c 0 33.09403075624073 -8.09747561056954 9.505732238494678 -17.60320784906422 9.505732238494678
S 463.42230375656806 353.2291164536354 463.42230375656806 320.1350856973947
s 8.09747561056954 -9.505732238494678 17.60320784906422 -9.505732238494678
S 498.6287194546965 287.04105494115396 498.6287194546965 320.1350856973947
z" fill="none" stroke="none" style="animation-play-state:paused" ></path>


<circle cx="0" cy="0" r="7.450031275701484" fill="#9df871" opacity="0.9" transform="translate(463.44281005859375 317.40252685546875)" style="opacity:0.9;animation-play-state:paused" ></circle>
<path id="path19" d="M 360.0972944341273 542.2859581530267
c 0 28.40347160458115 -6.9497856053762375 8.158443971528628 -15.108229576904865 8.158443971528628
S 329.88083528031757 570.6894297576079 329.88083528031757 542.2859581530267
s 6.9497856053762375 -8.158443971528628 15.108229576904865 -8.158443971528628
S 360.0972944341273 513.8824865484456 360.0972944341273 542.2859581530267
z" fill="none" stroke="none" style="animation-play-state:paused" ></path>


<circle cx="0" cy="0" r="7.584875295492463" fill="#de9dd6" opacity="0.9" transform="translate(351.3373718261719 530.95751953125)" style="opacity:0.9;animation-play-state:paused" ></circle>
<path id="path20" d="M 884.8361631661113 475.5409580820547
c 0 34.394873895064954 -8.415767016877595 9.879378671986743 -18.295145688864338 9.879378671986743
S 848.2458717883827 509.9358319771197 848.2458717883827 475.5409580820547
s 8.415767016877595 -9.879378671986743 18.295145688864338 -9.879378671986743
S 884.8361631661113 441.14608418698975 884.8361631661113 475.5409580820547
z" fill="none" stroke="none" style="animation-play-state:paused" ></path>


<circle cx="0" cy="0" r="4.757758356467654" fill="#e0ff77" opacity="0.9" transform="translate(871.8148803710938 463.68243408203125)" style="opacity:0.9;animation-play-state:paused" ></circle>
<path id="path21" d="M 247.4797705152001 191.80459283187614
c 0 25.407493215775094 -6.216727063434331 7.297896987509868 -13.5146240509442 7.297896987509868
S 220.4505224133117 217.21208604765124 220.4505224133117 191.80459283187614
s 6.216727063434331 -7.297896987509868 13.5146240509442 -7.297896987509868
S 247.4797705152001 166.39709961610103 247.4797705152001 191.80459283187614
z" fill="none" stroke="none" style="animation-play-state:paused" ></path>


<circle cx="0" cy="0" r="5.982152095760305" fill="#9df871" opacity="0.9" transform="translate(236.15203857421875 199.5992889404297)" style="opacity:0.9;animation-play-state:paused" ></circle>
<path id="path22" d="M 666.2916359093538 176.25365622550387
c 0 19.50804707160383 -4.773245560073277 5.603375222694717 -10.376620782767993 5.603375222694717
S 645.5383943438178 195.76170329710772 645.5383943438178 176.25365622550387
s 4.773245560073277 -5.603375222694717 10.376620782767993 -5.603375222694717
S 666.2916359093538 156.74560915390003 666.2916359093538 176.25365622550387
z" fill="none" stroke="none" style="animation-play-state:paused" ></path>


<circle cx="0" cy="0" r="4.749475126229527" fill="#de9dd6" opacity="0.9" transform="translate(645.560791015625 174.0849151611328)" style="opacity:0.9;animation-play-state:paused" ></circle>
<path id="path23" d="M 296.6714392785485 491.45601532924906
c 0 25.867371543287096 -6.329250483995779 7.429989698603741 -13.75924018259952 7.429989698603741
S 269.1529589133495 517.3233868725362 269.1529589133495 491.45601532924906
s 6.329250483995779 -7.429989698603741 13.75924018259952 -7.429989698603741
S 296.6714392785485 465.58864378596195 296.6714392785485 491.45601532924906
z" fill="none" stroke="none" style="animation-play-state:paused" ></path>


<circle cx="0" cy="0" r="7.51677381161881" fill="#e0ff77" opacity="0.9" transform="translate(288.80615234375 481.0445861816406)" style="opacity:0.9;animation-play-state:paused" ></circle>
<path id="path24" d="M 890.4983261593802 108.0946761880543
c 0 29.30791606709749 -7.171085846204704 8.418231210762045 -15.589317056966749 8.418231210762045
S 859.3196920454468 137.40259225515177 859.3196920454468 108.0946761880543
s 7.171085846204704 -8.418231210762045 15.589317056966749 -8.418231210762045
S 890.4983261593802 78.7867601209568 890.4983261593802 108.0946761880543
z" fill="none" stroke="none" style="animation-play-state:paused" ></path>


<circle cx="0" cy="0" r="5.47319491909249" fill="#de9dd6" opacity="0.9" transform="translate(880.0960083007812 97.49394226074219)" style="opacity:0.9;animation-play-state:paused" ></circle>
<path id="path25" d="M 960.5703623600472 529.1581851021417
c 0 29.42563212500344 -7.199888711437011 8.452043269947797 -15.651931981384807 8.452043269947797
S 929.2664983972776 558.5838172271451 929.2664983972776 529.1581851021417
s 7.199888711437011 -8.452043269947797 15.651931981384807 -8.452043269947797
S 960.5703623600472 499.73255297713825 960.5703623600472 529.1581851021417
z" fill="none" stroke="none" style="animation-play-state:paused" ></path>


<circle cx="0" cy="0" r="4.939672019050406" fill="#ff708e" opacity="0.9" transform="translate(934.64013671875 543.96875)" style="opacity:0.9;animation-play-state:paused" ></circle>
<path id="path26" d="M 909.2715664134918 36.39268181721556
c 0 31.06239028375852 -7.6003720907068715 8.922175932568937 -16.52254802327581 8.922175932568937
S 876.2264703669401 67.45507210097408 876.2264703669401 36.39268181721556
s 7.6003720907068715 -8.922175932568937 16.52254802327581 -8.922175932568937
S 909.2715664134918 5.330291533457039 909.2715664134918 36.39268181721556
z" fill="none" stroke="none" style="animation-play-state:paused" ></path>


<circle cx="0" cy="0" r="5.347090784059759" fill="#51cacc" opacity="0.9" transform="translate(876.643310546875 46.39924621582031)" style="opacity:0.9;animation-play-state:paused" ></circle>
<path id="path27" d="M 843.3024476417652 585.0192138847536
c 0 35.633976291343046 -8.718951645754148 10.235291062407045 -18.954242708161193 10.235291062407045
S 805.3939622254427 620.6531901760967 805.3939622254427 585.0192138847536
s 8.718951645754148 -10.235291062407045 18.954242708161193 -10.235291062407045
S 843.3024476417652 549.3852375934106 843.3024476417652 585.0192138847536
z" fill="none" stroke="none" style="animation-play-state:paused" ></path>


<circle cx="0" cy="0" r="6.8567461971304065" fill="#ff708e" opacity="0.9" transform="translate(833.498779296875 600.2481689453125)" style="opacity:0.9;animation-play-state:paused" ></circle>
<path id="path28" d="M 899.9477278582921 174.29409392284572
c 0 27.017870598355984 -6.610755571938165 7.760452193144804 -14.37120776508297 7.760452193144804
S 871.2053123281261 201.3119645212017 871.2053123281261 174.29409392284572
s 6.610755571938165 -7.760452193144804 14.37120776508297 -7.760452193144804
S 899.9477278582921 147.27622332448973 899.9477278582921 174.29409392284572
z" fill="none" stroke="none" style="animation-play-state:paused" ></path>


<circle cx="0" cy="0" r="4.255992915211458" fill="#9df871" opacity="0.9" transform="translate(899.4946899414062 164.84732055664062)" style="opacity:0.9;animation-play-state:paused" ></circle>
<path id="path29" d="M 446.9691479310559 170.70630637939703
c 0 20.074158053718204 -4.911762076973602 5.765981568621186 -10.677743645594788 5.765981568621186
S 425.61366063986634 190.78046443311524 425.61366063986634 170.70630637939703
s 4.911762076973602 -5.765981568621186 10.677743645594788 -5.765981568621186
S 446.9691479310559 150.63214832567883 446.9691479310559 170.70630637939703
z" fill="none" stroke="none" style="animation-play-state:paused" ></path>


<circle cx="0" cy="0" r="6.562760637722732" fill="#ff708e" opacity="0.9" transform="translate(428.61358642578125 181.20782470703125)" style="opacity:0.9;animation-play-state:paused" ></circle></g></svg>